<?xml version="1.0" encoding="UTF-8"?>
<svg id="Layer_1" xmlns="http://www.w3.org/2000/svg" version="1.1" viewBox="0 0 768.5 652.1">
  <!-- Generator: Adobe Illustrator 29.0.0, SVG Export Plug-In . SVG Version: 2.1.0 Build 186)  -->
  <defs>
    <style>
      .st0 {
        fill: #a38f55;
      }
    </style>
  </defs>
  <path class="st0" d="M684.9,291c1.5,9.3,2.3,19.4,2.3,30.2,0,81.6-36.5,129.6-73.9,163.8h-4.4c24.7-38.4,46-88.2,46-145.6s-2.7-32.9-7.4-45.9c-16.2-44.7-55.9-62.7-89.9-62.7s-9.9.6-14.3,1.5c11,21,17.8,47.8,17.8,81,0,66.6-32.4,110.7-67.5,144.1h-4.3c21.8-35.9,38.3-79.2,38.3-127.8,0-87-55.4-120.2-97-120.2s-7.7.5-11.2,1.2c-5.3-19.7-8.7-39.7-10.1-59.9,16.8,1.7,33.5,5.2,49.7,10.4h0s0-70.7,0-70.7h0c-16.1,5.2-32.7,8.6-49.3,10.3,1.7-19.7,5.3-39.3,10.7-58.5h0s-72.2,0-72.2,0c5.5,19.2,9,38.8,10.7,58.5-16.7-1.7-33.2-5.2-49.3-10.3h0s0,70.7,0,70.7h0c16.3-5.2,32.9-8.7,49.7-10.4-1.4,20.2-4.8,40.2-10.1,59.9-3.5-.8-7.3-1.2-11.2-1.2-41.6,0-97,33.3-97,120.2s16.5,91.9,38.3,127.8h-4.3c-35.1-33.4-67.5-77.5-67.5-144.1s6.8-60,17.8-81c-4.4-.9-9.2-1.5-14.3-1.5-34,0-73.7,18.1-89.9,62.7-4.7,13-7.4,28.2-7.4,45.9,0,57.4,21.3,107.2,46,145.6h-4.4c-37.3-34.2-73.9-82.1-73.9-163.8s.8-20.9,2.3-30.2c-21.8,0-64.7,32-64.7,89.1,0,104.4,119.3,146,119.3,229.7,1.1-.2,115.2-17.7,245.9-17.7s244.8,17.5,245.9,17.7c0-83.7,119.3-125.3,119.3-229.7s-42.9-89.1-64.7-89.1ZM384.3,487.2c-29.5,0-53.4-33.5-53.4-74.7s23.9-74.7,53.4-74.7,53.4,33.5,53.4,74.7-23.9,74.7-53.4,74.7ZM384.3,290.2c-35.9,0-66.9,21.6-84.7,55,0-52.2,41.1-89.1,84.7-89.1s84.7,36.9,84.7,89.1c-17.9-33.3-48.8-55-84.7-55Z"/>
</svg>